<svg width="120" height="120" viewBox="0 0 38 38" fill="none" xmlns="http://www.w3.org/2000/svg">
<path d="M23.9296 20.7925C22.2267 20.8821 20.8824 19.8962 20.6135 18.283C20.5239 18.0142 20.0758 18.1038 20.0758 18.4623C19.8069 20.2547 18.4626 21.8679 16.7598 22.6746C16.4909 22.7642 16.4909 23.2123 16.7598 23.2123C18.4626 23.1227 19.8069 24.1085 20.0758 25.7217C20.1654 25.9906 20.6135 25.901 20.6135 25.5425C20.8824 23.75 22.2267 22.1368 23.9296 21.3302C24.1984 21.151 24.1984 20.7029 23.9296 20.7925Z" fill="url(#paint0_linear_32_1088)"/>
<path d="M14.4296 23.2122C12.7267 23.3018 11.3824 22.3159 11.1135 20.7027C11.0239 20.4339 10.5758 20.5235 10.5758 20.882C10.3069 22.6744 8.96259 24.2876 7.25976 25.0942C6.99089 25.1838 6.99089 25.632 7.25976 25.632C8.96259 25.5423 10.3069 26.5282 10.5758 28.1414C10.6654 28.4103 11.1135 28.3206 11.1135 27.9622C11.3824 26.1697 12.7267 24.5565 14.4296 23.7499C14.6984 23.6603 14.6984 23.2122 14.4296 23.2122Z" fill="url(#paint1_linear_32_1088)"/>
<path d="M35.6698 17.2075C35.4906 17.2075 35.4009 17.2075 35.2217 17.2075C34.684 15.5047 33.5189 13.8915 31.9953 12.9057L28.9481 10.8443C27.2453 9.67925 25.0943 9.32076 23.1226 9.85849L16.7594 11.5613V8.3349C18.3726 7.70755 19.5377 6.18396 19.5377 4.30189C19.5377 1.88207 17.6557 0 15.2358 0C12.816 0 10.934 1.88207 10.934 4.30189C10.934 6.18396 12.0991 7.70755 13.7123 8.3349V12.3679L7.61792 13.9811C3.85377 14.967 1.16509 18.4623 1.16509 22.4057V23.2123C0.537735 23.2123 0 23.75 0 24.3774V30.6509C0 31.2783 0.537735 31.816 1.16509 31.816V33.1604C1.16509 35.8491 3.31604 38 6.00472 38H26.2594H28.5C31.9953 38 34.9528 35.4906 35.5802 32.1745C35.6698 32.1745 35.6698 32.1745 35.7594 32.1745C36.8349 32.1745 37.7311 31.2783 37.7311 30.2028V19.1792C37.7311 18.0142 36.8349 17.2075 35.6698 17.2075ZM26.3491 24.2877C26.3491 27.2453 24.3774 29.8443 21.5094 30.6509L8.87264 33.967C6.81132 34.5047 4.75 32.9811 4.75 30.8302V23.033C4.75 20.0755 6.7217 17.4764 9.58962 16.6698L22.2264 13.2641C24.2877 12.7264 26.3491 14.25 26.3491 16.4009V24.2877Z" fill="url(#paint2_linear_32_1088)"/>
<defs>
<linearGradient id="paint0_linear_32_1088" x1="20.2788" y1="-1.17233" x2="20.2788" y2="29.2992" gradientUnits="userSpaceOnUse">
<stop offset="0.03" stop-color="#678AFE"/>
<stop offset="0.44" stop-color="#8E50F3"/>
<stop offset="1" stop-color="#9F00C6"/>
</linearGradient>
<linearGradient id="paint1_linear_32_1088" x1="10.7894" y1="-1.17246" x2="10.7894" y2="29.2991" gradientUnits="userSpaceOnUse">
<stop offset="0.03" stop-color="#678AFE"/>
<stop offset="0.44" stop-color="#8E50F3"/>
<stop offset="1" stop-color="#9F00C6"/>
</linearGradient>
<linearGradient id="paint2_linear_32_1088" x1="18.8816" y1="-1.17235" x2="18.8816" y2="29.2992" gradientUnits="userSpaceOnUse">
<stop offset="0.03" stop-color="#678AFE"/>
<stop offset="0.44" stop-color="#8E50F3"/>
<stop offset="1" stop-color="#9F00C6"/>
</linearGradient>
</defs>
</svg>
