<svg width="244" height="42" viewBox="0 0 122 21" fill="none" xmlns="http://www.w3.org/2000/svg">
<path d="M0.320312 16.321V13.7219H4.89107V15.3351C4.89107 15.7832 5.15994 16.0521 5.60805 16.0521H8.38635C8.83446 16.0521 9.10333 15.7832 9.10333 15.3351V13.1842C9.10333 12.7361 8.92408 12.4672 8.47597 12.3776L3.72598 11.3021C1.57503 10.7644 0.409934 9.42003 0.409934 7.26908V4.22191C0.409934 3.05682 0.768423 2.07097 1.39578 1.44361C2.02314 0.816255 2.91937 0.457764 4.17409 0.457764H9.82031C10.9854 0.457764 11.9713 0.816255 12.5986 1.44361C13.226 2.07097 13.5845 2.9672 13.5845 4.22191V6.5521H9.01371V5.20776C9.01371 4.75965 8.74484 4.49078 8.29673 4.49078H5.69767C5.24956 4.49078 4.98069 4.75965 4.98069 5.20776V7.00022C4.98069 7.44833 5.15994 7.7172 5.60805 7.80682L10.358 8.88229C12.509 9.42003 13.6741 10.7644 13.6741 12.9153V16.4106C13.6741 17.5757 13.3156 18.5615 12.6882 19.1889C12.0609 19.8163 11.1646 20.1747 9.90993 20.1747H4.17409C3.00899 20.1747 2.02314 19.8163 1.39578 19.1889C0.768423 18.5615 0.320312 17.5757 0.320312 16.321Z" fill="url(#paint0_linear_32_1079)"/>
<path d="M15.1982 4.67023V0.637207H28.2831V4.67023H23.9813V19.9061H19.4105V4.67023H15.1982Z" fill="url(#paint1_linear_32_1079)"/>
<path d="M38.2313 19.9061L37.4247 15.8731H32.9435L32.1369 19.9061H27.4766L31.6888 2.69853L30.703 0.637207H38.2313L42.8917 19.9061H38.2313ZM33.7501 11.9297H36.7077L35.2737 4.67023H35.0945L33.7501 11.9297Z" fill="url(#paint2_linear_32_1079)"/>
<path d="M58.2166 19.9061H53.5562L51.4949 13.9014H49.4336V19.9061H44.8628V2.69853L43.877 0.637207H54.1836C55.3487 0.637207 56.3345 0.995696 56.9619 1.62305C57.5892 2.25041 57.9477 3.14664 57.9477 4.40136V10.2268C57.9477 11.9297 57.3203 13.0948 56.0656 13.6325L58.2166 19.9061ZM49.3439 9.95796H52.66C53.1081 9.95796 53.377 9.68909 53.377 9.24098V5.29758C53.377 4.84947 53.1081 4.5806 52.66 4.5806H49.3439V9.95796Z" fill="url(#paint3_linear_32_1079)"/>
<path d="M75.0654 0.637207L71.122 9.95796L75.1551 19.9061H70.2258L66.9994 12.0193H65.3862V19.9061H60.8154V2.69853L59.8296 0.637207H65.2966V8.07589H66.9098L70.1362 0.637207H75.0654Z" fill="url(#paint4_linear_32_1079)"/>
<path d="M90.2124 4.40136V8.43438L88.5095 10.1372L90.2124 11.84V16.2315C90.2124 17.3966 89.8539 18.3825 89.2265 19.0098C88.5991 19.6372 87.7029 19.9957 86.4482 19.9957H77.1274V2.69853L76.1416 0.637207H86.4482C87.6133 0.637207 88.5991 0.995696 89.2265 1.62305C89.8539 2.25041 90.2124 3.14664 90.2124 4.40136ZM85.7312 7.44853V5.38721C85.7312 4.93909 85.4623 4.67023 85.0142 4.67023H81.6982V8.07588H85.0142C85.4623 8.07588 85.7312 7.89664 85.7312 7.44853ZM85.7312 15.2457V12.7363C85.7312 12.2881 85.4623 12.0193 85.0142 12.0193H81.6982V15.8731H85.0142C85.4623 15.9627 85.7312 15.6938 85.7312 15.2457Z" fill="url(#paint5_linear_32_1079)"/>
<path d="M96.665 20.0851C95.4999 20.0851 94.5141 19.7266 93.8867 19.0993C93.2594 18.4719 92.9009 17.5757 92.9009 16.321V4.22192C92.9009 3.05682 93.2594 2.07097 93.8867 1.44361C94.5141 0.816255 95.4103 0.457764 96.665 0.457764H102.311C103.476 0.457764 104.462 0.816255 105.09 1.44361C105.717 2.07097 106.075 2.9672 106.075 4.22192V16.321C106.075 17.4861 105.717 18.4719 105.09 19.0993C104.462 19.7266 103.566 20.0851 102.311 20.0851H96.665ZM97.5613 15.4247C97.5613 15.8729 97.8301 16.1417 98.2782 16.1417H100.877C101.325 16.1417 101.594 15.8729 101.594 15.4247V5.20776C101.594 4.75965 101.325 4.49078 100.877 4.49078H98.2782C97.8301 4.49078 97.5613 4.75965 97.5613 5.20776V15.4247Z" fill="url(#paint6_linear_32_1079)"/>
<path d="M107.958 4.67023V0.637207H121.043V4.67023H116.831V19.9061H112.26V4.67023H107.958Z" fill="url(#paint7_linear_32_1079)"/>
<defs>
<linearGradient id="paint0_linear_32_1079" x1="6.93742" y1="-13.1721" x2="6.93742" y2="17.2994" gradientUnits="userSpaceOnUse">
<stop offset="0.03" stop-color="#678AFE"/>
<stop offset="0.44" stop-color="#8E50F3"/>
<stop offset="1" stop-color="#9F00C6"/>
</linearGradient>
<linearGradient id="paint1_linear_32_1079" x1="21.7288" y1="-13.1719" x2="21.7288" y2="17.2996" gradientUnits="userSpaceOnUse">
<stop offset="0.03" stop-color="#678AFE"/>
<stop offset="0.44" stop-color="#8E50F3"/>
<stop offset="1" stop-color="#9F00C6"/>
</linearGradient>
<linearGradient id="paint2_linear_32_1079" x1="35.1993" y1="-13.1719" x2="35.1993" y2="17.2996" gradientUnits="userSpaceOnUse">
<stop offset="0.03" stop-color="#678AFE"/>
<stop offset="0.44" stop-color="#8E50F3"/>
<stop offset="1" stop-color="#9F00C6"/>
</linearGradient>
<linearGradient id="paint3_linear_32_1079" x1="51.0224" y1="-13.1719" x2="51.0224" y2="17.2996" gradientUnits="userSpaceOnUse">
<stop offset="0.03" stop-color="#678AFE"/>
<stop offset="0.44" stop-color="#8E50F3"/>
<stop offset="1" stop-color="#9F00C6"/>
</linearGradient>
<linearGradient id="paint4_linear_32_1079" x1="67.4654" y1="-13.1719" x2="67.4654" y2="17.2996" gradientUnits="userSpaceOnUse">
<stop offset="0.03" stop-color="#678AFE"/>
<stop offset="0.44" stop-color="#8E50F3"/>
<stop offset="1" stop-color="#9F00C6"/>
</linearGradient>
<linearGradient id="paint5_linear_32_1079" x1="83.2204" y1="-13.1719" x2="83.2204" y2="17.2996" gradientUnits="userSpaceOnUse">
<stop offset="0.03" stop-color="#678AFE"/>
<stop offset="0.44" stop-color="#8E50F3"/>
<stop offset="1" stop-color="#9F00C6"/>
</linearGradient>
<linearGradient id="paint6_linear_32_1079" x1="99.5252" y1="-13.1721" x2="99.5252" y2="17.2994" gradientUnits="userSpaceOnUse">
<stop offset="0.03" stop-color="#678AFE"/>
<stop offset="0.44" stop-color="#8E50F3"/>
<stop offset="1" stop-color="#9F00C6"/>
</linearGradient>
<linearGradient id="paint7_linear_32_1079" x1="114.524" y1="-13.1719" x2="114.524" y2="17.2996" gradientUnits="userSpaceOnUse">
<stop offset="0.03" stop-color="#678AFE"/>
<stop offset="0.44" stop-color="#8E50F3"/>
<stop offset="1" stop-color="#9F00C6"/>
</linearGradient>
</defs>
</svg>
